<?xml version="1.0" encoding="UTF-8" standalone="no"?>
<!-- Created with Inkscape (http://www.inkscape.org/) -->

<svg
   xmlns:dc="http://purl.org/dc/elements/1.1/"
   xmlns:cc="http://creativecommons.org/ns#"
   xmlns:rdf="http://www.w3.org/1999/02/22-rdf-syntax-ns#"
   xmlns:svg="http://www.w3.org/2000/svg"
   xmlns="http://www.w3.org/2000/svg"
   xmlns:sodipodi="http://sodipodi.sourceforge.net/DTD/sodipodi-0.dtd"
   xmlns:inkscape="http://www.inkscape.org/namespaces/inkscape"
   version="1.1"
   id="svg4588"
   width="173.2"
   height="200"
   viewBox="0 0 173.2 200"
   sodipodi:docname="sygnet.svg"
   inkscape:export-filename="/home/gabriele/favicon.png"
   inkscape:export-xdpi="37.500004"
   inkscape:export-ydpi="37.500004"
   inkscape:version="0.92.4 (unknown)">
  <metadata
     id="metadata4594">
    <rdf:RDF>
      <cc:Work
         rdf:about="">
        <dc:format>image/svg+xml</dc:format>
        <dc:type
           rdf:resource="http://purl.org/dc/dcmitype/StillImage" />
        <dc:title></dc:title>
      </cc:Work>
    </rdf:RDF>
  </metadata>
  <defs
     id="defs4592" />
  <sodipodi:namedview
     pagecolor="#ffffff"
     bordercolor="#666666"
     borderopacity="1"
     objecttolerance="10"
     gridtolerance="10"
     guidetolerance="10"
     inkscape:pageopacity="0"
     inkscape:pageshadow="2"
     inkscape:window-width="1920"
     inkscape:window-height="1053"
     id="namedview4590"
     showgrid="false"
     inkscape:snap-bbox="false"
     inkscape:zoom="1.8101934"
     inkscape:cx="-46.471039"
     inkscape:cy="69.270497"
     inkscape:window-x="0"
     inkscape:window-y="0"
     inkscape:window-maximized="1"
     inkscape:current-layer="svg4588"
     inkscape:snap-page="true" />
  <path
     style="fill:#000000;stroke-width:0.29592076"
     d="m 71.603673,167.02163 c -2.348755,-0.34125 -6.347075,-1.36029 -6.794597,-1.73168 -0.195853,-0.16249 -1.793633,-3.59362 -3.550625,-7.62458 -1.757001,-4.03099 -3.54378,-7.75435 -3.970638,-8.27418 -0.426856,-0.5198 -2.252802,-2.60664 -4.057643,-4.63738 -1.804869,-2.03077 -4.534382,-5.31201 -6.06561,-7.29163 l -2.784052,-3.59935 -1.628335,0.19378 c -1.409985,0.16765 -7.347036,0.97966 -36.8564706,5.03975 -2.9370718,0.4041 -5.53378057,0.72302 -5.77045699,0.70869 -0.30851537,-0.0181 39.98601759,-10.20456 40.81114359,-10.31646 0.204934,-0.029 -0.201856,-1.34875 -0.961424,-3.1219 -0.95117,-2.22042 -1.033136,-4.93898 -0.214094,-7.10209 0.654658,-1.72898 1.114916,-5.83445 1.50948,-13.46438 0.1557,-3.01102 0.617795,-9.136576 1.026881,-13.612358 0.409075,-4.475812 0.758455,-9.069967 0.776434,-10.209255 0.0266,-1.689976 0.425281,-4.165106 0.53601,-3.328085 0.456509,3.450825 1.632771,13.756143 2.119379,18.568006 0.525818,5.199582 0.612711,7.443882 0.475487,12.280682 -0.164006,5.77994 -0.704246,10.42306 -1.354014,11.6372 -0.177975,0.33251 -0.323598,1.00904 -0.323598,1.50339 0,2.95296 5.414575,10.83941 14.22868,20.72438 l 3.578191,4.0129 3.0304,6.95412 3.03038,6.95415 1.456591,0.4152 c 2.018663,0.5754 8.519591,0.60893 9.890317,0.051 2.042676,-0.83143 2.582996,-1.41222 3.257891,-3.50182 0.354394,-1.09728 1.883941,-4.59174 3.398993,-7.7655 1.51504,-3.17374 2.851788,-6.10337 2.970545,-6.51026 0.393233,-1.34745 2.561306,-5.43614 4.078533,-7.69159 2.16392,-3.21675 7.006239,-8.26007 12.852939,-13.38649 2.80755,-2.46165 5.10464,-4.56676 5.10464,-4.67795 0,-0.11126 -1.0176,-1.05309 -2.26134,-2.0931 -3.33543,-2.78906 -7.74229,-7.99972 -7.45965,-8.82027 0.057,-0.16558 1.39242,0.54394 2.96768,1.57622 8.77189,5.74806 18.67064,8.64459 31.90907,9.3371 5.08716,0.26601 12.87501,-0.0592 13.39995,-0.55946 0.12872,-0.12264 -0.93661,-0.70844 -2.36736,-1.3017 -10.09853,-4.1873 -22.16691,-13.48354 -27.76962,-21.390853 -2.69522,-3.803901 -4.73006,-5.970581 -7.1685,-7.633014 -4.97307,-3.390464 -9.48297,-3.348703 -12.60724,0.116947 -1.128579,1.251778 -2.847201,4.567577 -2.847201,5.493193 0,0.289793 -0.199914,0.434081 -0.517852,0.373645 -1.256686,-0.239066 -0.552322,-5.659522 1.150561,-8.854418 1.171279,-2.197596 3.897092,-4.799965 6.090252,-5.814471 1.2654,-0.585362 2.36562,-0.832572 4.22611,-0.949618 1.66493,-0.104783 2.51533,-0.277895 2.51533,-0.511807 0,-0.511444 -7.26217,-9.152389 -12.759689,-15.182221 -6.072553,-6.660589 -25.977558,-29.867036 -25.784028,-30.060561 0.164134,-0.164031 0.850004,0.418976 15.337957,13.040923 11.40577,9.936736 11.367402,9.899997 17.31269,16.579302 9.89117,11.112296 16.06118,19.354704 21.26298,28.40484 2.05022,3.566974 3.49462,5.543569 6.82179,9.335491 3.59102,4.092572 8.92634,7.607482 14.50249,9.554242 1.62755,0.56823 4.74129,1.71181 6.91939,2.54139 4.82157,1.83631 8.83453,3.02194 14.51658,4.28901 3.02616,0.6748 4.3345,1.0917 4.39434,1.40028 0.0909,0.46863 -3.4137,2.25595 -7.11462,3.62839 -6.1152,2.26774 -15.31173,4.05099 -23.8943,4.63319 -8.44549,0.5729 -10.35563,0.31099 -19.76652,-2.71046 -6.51392,-2.09134 -5.7889,-2.05791 -7.5571,-0.34837 -0.84076,0.81283 -3.2598,2.97736 -5.37564,4.80998 -4.90057,4.24463 -10.168389,9.82951 -12.179857,12.9129 -0.86211,1.32153 -1.981218,3.45217 -2.486916,4.73474 -0.505688,1.28257 -2.165253,4.92866 -3.687918,8.10239 -1.522663,3.17376 -2.916629,6.43199 -3.097671,7.24052 -0.417775,1.86558 -1.212389,3.14975 -2.656935,4.29385 -3.200557,2.53489 -8.059725,3.46506 -13.768548,2.63561 z m 7.273414,-10.69727 c -0.945447,-0.48239 -1.224493,-1.25631 -0.372654,-1.03355 0.926935,0.24242 1.447691,-0.35763 1.667552,-1.92131 0.323959,-2.30431 1.036341,-1.5089 1.045071,1.16692 0.0033,0.94964 -0.150319,1.34898 -0.653641,1.70155 -0.784944,0.54979 -0.778719,0.54944 -1.686328,0.0865 z m 9.886392,-32.13861 c -3.432668,-1.6478 -5.809608,-3.65477 -7.111072,-6.00437 -0.787771,-1.42218 -0.875194,-1.84602 -0.875194,-4.2433 0,-3.49897 0.7245,-5.12782 2.707869,-6.08796 0.737356,-0.35697 1.894558,-0.71124 2.571523,-0.78725 1.199557,-0.13453 1.266583,-0.0942 2.635275,1.59296 0.772422,0.95215 1.467577,2.13069 1.544788,2.61895 0.701844,4.43809 1.832522,13.95238 1.677919,14.11903 -0.107499,0.1159 -1.525505,-0.42773 -3.151108,-1.20806 z"
     id="path4598"
     inkscape:connector-curvature="0" />
</svg>
