<?xml version="1.0" encoding="UTF-8" standalone="no"?>
<!-- Created with Inkscape (http://www.inkscape.org/) -->

<svg
   xmlns:dc="http://purl.org/dc/elements/1.1/"
   xmlns:cc="http://creativecommons.org/ns#"
   xmlns:rdf="http://www.w3.org/1999/02/22-rdf-syntax-ns#"
   xmlns:svg="http://www.w3.org/2000/svg"
   xmlns="http://www.w3.org/2000/svg"
   xmlns:sodipodi="http://sodipodi.sourceforge.net/DTD/sodipodi-0.dtd"
   xmlns:inkscape="http://www.inkscape.org/namespaces/inkscape"
   width="450.09998"
   height="250"
   viewBox="0 0 119.0897 66.14582"
   version="1.1"
   id="svg8"
   sodipodi:docname="logo.svg"
   inkscape:version="0.92.4 (unknown)">
  <defs
     id="defs2" />
  <sodipodi:namedview
     id="base"
     pagecolor="#ffffff"
     bordercolor="#666666"
     borderopacity="1.0"
     inkscape:pageopacity="0.0"
     inkscape:pageshadow="2"
     inkscape:zoom="0.98994949"
     inkscape:cx="392.30618"
     inkscape:cy="77.786843"
     inkscape:document-units="px"
     inkscape:current-layer="layer1"
     showgrid="false"
     units="px"
     inkscape:snap-page="false"
     inkscape:window-width="990"
     inkscape:window-height="708"
     inkscape:window-x="677"
     inkscape:window-y="90"
     inkscape:window-maximized="0" />
  <metadata
     id="metadata5">
    <rdf:RDF>
      <cc:Work
         rdf:about="">
        <dc:format>image/svg+xml</dc:format>
        <dc:type
           rdf:resource="http://purl.org/dc/dcmitype/StillImage" />
        <dc:title></dc:title>
      </cc:Work>
    </rdf:RDF>
  </metadata>
  <g
     inkscape:label="Livello 1"
     inkscape:groupmode="layer"
     id="layer1"
     transform="translate(0,-230.85427)">
    <g
       id="g964"
       transform="matrix(1.1598032,0,0,1.1598032,-51.994985,-50.826166)">
      <path
         id="path885"
         d="m 49.69755,296.0584 c -0.237696,-0.0994 -0.250829,-4.86786 -0.01558,-5.6531 0.21771,-0.72665 0.858059,-1.48035 1.654032,-1.94681 0.777139,-0.45544 2.392011,-0.62142 3.287706,-0.33794 1.880939,0.59531 2.926013,2.37132 2.419886,4.11235 -0.668916,2.30098 -3.717909,3.32849 -5.837743,1.96731 -0.293978,-0.18877 -0.565436,-0.34322 -0.603235,-0.34322 -0.03779,0 -0.08756,0.49996 -0.110592,1.11101 -0.03732,0.99067 -0.07292,1.11396 -0.328579,1.13818 -0.15769,0.015 -0.367354,-0.007 -0.465911,-0.0477 z"
         style="fill:#1a9400;fill-opacity:1;stroke-width:0.14335635"
         inkscape:connector-curvature="0" />
      <path
         id="path883"
         d="m 54.916292,293.20015 c 0.756563,-0.43526 1.271562,-1.4066 1.134143,-2.1391 -0.288993,-1.54046 -2.445698,-2.41183 -4.048758,-1.6358 -1.211549,0.5865 -1.697574,2.00282 -1.026206,2.99043 0.843233,1.24043 2.555741,1.58132 3.940821,0.78447 z"
         style="fill:#ffffff;fill-opacity:1;stroke-width:0.14335635"
         inkscape:connector-curvature="0" />
      <path
         id="path881"
         d="m 61.388723,294.66776 c -0.920131,-0.25848 -1.756104,-0.84041 -2.224873,-1.54877 -0.534498,-0.80768 -0.6347,-2.2497 -0.213571,-3.07337 0.428375,-0.83785 0.944519,-1.32477 1.837769,-1.73372 0.699665,-0.32031 0.943822,-0.35916 1.898596,-0.30212 1.282588,0.0766 2.042631,0.41091 2.739933,1.2051 0.95946,1.09276 1.131101,2.33048 0.499076,3.5988 -0.769857,1.5449 -2.752814,2.35527 -4.53693,1.85408 z"
         style="fill:#1a9400;fill-opacity:1;stroke-width:0.14335635"
         inkscape:connector-curvature="0" />
      <path
         id="path879"
         d="m 63.134336,293.55864 c 2.289057,-0.52744 2.738557,-3.04138 0.732946,-4.09918 -1.556471,-0.82091 -3.712072,-0.007 -4.076052,1.53914 -0.211452,0.89819 0.749783,2.29253 1.729609,2.5089 0.218813,0.0483 0.462354,0.10938 0.541196,0.13568 0.244042,0.0814 0.408342,0.0685 1.072301,-0.0845 z"
         style="fill:#ffffff;fill-opacity:1;stroke-width:0.14335635"
         inkscape:connector-curvature="0" />
      <path
         id="path877"
         d="m 70.044495,294.58981 c -0.861533,-0.29977 -1.624462,-0.96243 -2.081568,-1.80799 -0.276537,-0.51154 -0.309846,-0.79327 -0.308627,-2.61045 0.0014,-2.19407 0.07543,-2.43711 0.694348,-2.28177 l 0.358312,0.0899 0.04639,2.05448 c 0.04511,1.99668 0.0577,2.06926 0.44805,2.58048 0.687772,0.90074 1.058512,1.01873 3.453814,1.09913 1.829019,0.0614 2.157802,0.10766 2.292965,0.32255 0.114846,0.1826 0.114785,0.31916 -2.84e-4,0.50176 -0.2443,0.38786 -3.828854,0.42578 -4.903492,0.0519 z"
         style="fill:#1a9400;fill-opacity:1;stroke-width:0.14335635"
         inkscape:connector-curvature="0" />
      <path
         id="path875"
         d="m 76.484112,294.66324 c -0.114554,-0.13804 -0.152102,-1.15547 -0.125065,-3.3892 0.03461,-2.85877 0.06481,-3.20847 0.2895,-3.35009 0.182878,-0.11528 0.318868,-0.11528 0.501745,0 0.224686,0.14162 0.254906,0.49132 0.289501,3.35009 0.03989,3.29592 -0.0041,3.58645 -0.540376,3.58645 -0.138381,0 -0.325268,-0.0888 -0.415305,-0.19725 z"
         style="fill:#1a9400;fill-opacity:1;stroke-width:0.14335635"
         inkscape:connector-curvature="0" />
      <path
         id="path873"
         d="m 81.084232,294.5551 c -2.653803,-1.02637 -3.129412,-4.41817 -0.836088,-5.96259 0.971496,-0.65425 1.474433,-0.75478 3.780524,-0.75569 l 2.040098,-6.7e-4 0.09042,0.36025 c 0.175347,0.69865 -0.07717,0.78659 -2.258567,0.78659 -1.702829,0 -2.076339,0.0415 -2.549307,0.28272 -1.385574,0.70687 -1.780424,2.32369 -0.854835,3.50038 0.584542,0.74312 1.032342,0.87015 3.340621,0.94765 1.829094,0.0614 2.157849,0.10766 2.292966,0.32257 0.114777,0.18254 0.114696,0.3192 -2.85e-4,0.50175 -0.137006,0.2175 -0.432494,0.2549 -2.22129,0.28117 -1.784867,0.0262 -2.165949,-0.009 -2.824246,-0.26401 z"
         style="fill:#000000;stroke-width:0.14335635"
         inkscape:connector-curvature="0" />
      <path
         id="path871"
         d="m 89.944846,294.6402 c -0.890425,-0.27648 -1.693774,-0.98494 -2.095756,-1.84822 -0.305566,-0.65622 -0.338638,-0.92542 -0.339897,-2.76704 l -0.0014,-2.0401 0.380696,-0.0956 c 0.645388,-0.16197 0.766153,0.19216 0.766153,2.24664 0,1.64626 0.03,1.8591 0.322551,2.28896 0.537072,0.78911 1.01623,1.05409 2.021955,1.11812 1.027567,0.0654 1.48682,-0.10995 2.171217,-0.82914 0.428376,-0.45016 0.430354,-0.46005 0.501745,-2.51494 0.04355,-1.25381 0.135482,-2.12657 0.234344,-2.22509 0.08946,-0.0892 0.315251,-0.1405 0.501745,-0.11411 0.33626,0.0476 0.339422,0.065 0.37886,2.09091 0.03562,1.831 0.0075,2.11794 -0.271207,2.76585 -0.722273,1.67897 -2.690938,2.50748 -4.571003,1.92371 z"
         style="fill:#000000;stroke-width:0.14335635"
         inkscape:connector-curvature="0" />
      <path
         id="path869"
         d="m 96.402972,294.65402 c -0.120846,-0.14562 -0.157717,-0.83375 -0.125066,-2.33436 0.04246,-1.95139 0.07667,-2.18682 0.412541,-2.83856 0.957483,-1.85798 3.524213,-2.18751 4.928833,-0.63277 l 0.51086,0.56546 0.53758,-0.59575 c 0.64701,-0.71702 1.23018,-0.98305 2.14574,-0.97885 0.87263,0.004 1.71169,0.38499 2.28436,1.03723 0.7074,0.80568 0.83622,1.37094 0.83729,3.67394 6.7e-4,1.80849 -0.0299,2.08179 -0.24992,2.22129 -0.18271,0.11585 -0.31903,0.11622 -0.50174,10e-4 -0.21403,-0.13454 -0.26146,-0.46083 -0.32293,-2.22129 -0.0809,-2.31647 -0.24192,-2.81611 -1.04139,-3.23115 -0.59244,-0.30756 -1.48136,-0.30756 -2.07381,0 -0.79946,0.41504 -0.9605,0.91468 -1.04138,3.23115 -0.0615,1.76046 -0.10891,2.08675 -0.32293,2.22129 -0.18248,0.11472 -0.31927,0.11472 -0.50175,0 -0.21405,-0.13456 -0.26139,-0.46057 -0.32255,-2.22129 -0.0584,-1.68167 -0.1217,-2.1462 -0.34198,-2.51005 -0.82788,-1.36744 -3.016061,-1.26067 -3.616539,0.17647 -0.13578,0.32504 -0.198814,1.08186 -0.198814,2.38714 0,1.95824 -0.077,2.25531 -0.584548,2.25531 -0.132265,0 -0.317601,-0.0929 -0.411857,-0.20649 z"
         style="fill:#000000;stroke-width:0.14335635"
         inkscape:connector-curvature="0" />
      <path
         id="path867"
         d="m 111.78267,294.6039 c -1.04405,-0.37318 -1.67915,-0.90693 -2.11151,-1.77455 -0.36516,-0.73278 -0.37321,-0.81164 -0.37321,-3.65686 v -2.90793 l 0.35025,-0.0879 c 0.57485,-0.14428 0.65325,0.0215 0.65325,1.38111 0,0.70496 0.0241,1.28174 0.0536,1.28174 0.0295,0 0.33591,-0.15756 0.68094,-0.35013 2.36979,-1.32269 5.27411,-0.22779 5.8586,2.20864 0.21725,0.90559 -0.0892,2.0653 -0.74231,2.80914 -1.01442,1.15537 -2.88916,1.62592 -4.36963,1.09674 z"
         style="fill:#000000;stroke-width:0.14335635"
         inkscape:connector-curvature="0" />
      <path
         id="path865"
         d="m 114.35587,293.3729 c 1.08574,-0.46457 1.65862,-1.5918 1.31579,-2.58903 -0.23562,-0.68539 -0.53868,-1.00986 -1.27709,-1.36732 -1.05854,-0.51243 -2.40032,-0.311 -3.24615,0.48734 -1.11139,1.04898 -0.87838,2.54775 0.51915,3.33929 0.66868,0.37872 1.96063,0.44107 2.6883,0.12972 z"
         style="fill:#ffffff;fill-opacity:1;stroke-width:0.14335635"
         inkscape:connector-curvature="0" />
      <path
         id="path863"
         d="m 120.62311,294.64884 c -2.01127,-0.65145 -2.87822,-2.79407 -1.89335,-4.67933 0.93198,-1.78401 3.23514,-2.55067 5.13782,-1.71026 0.73114,0.32295 1.62964,1.08626 1.62964,1.38444 0,0.18675 -1.43731,1.43887 -2.33725,2.03609 -0.54393,0.36097 -0.546,0.36117 -0.82988,0.0773 -0.38266,-0.38266 -0.26896,-0.58615 0.73582,-1.3169 0.46991,-0.34176 0.85439,-0.67161 0.85439,-0.733 0,-0.22067 -1.59535,-0.61621 -2.17293,-0.53875 -1.1933,0.16006 -2.25921,1.30912 -2.26797,2.44489 -0.008,1.03332 0.95449,1.97505 2.22633,2.17838 0.72604,0.11608 1.29584,-0.11115 2.49816,-0.99625 0.81867,-0.60267 0.93281,-0.64751 1.19874,-0.47095 0.16165,0.10734 0.32044,0.27475 0.35287,0.37204 0.0863,0.25882 -1.10956,1.34791 -1.90039,1.73075 -0.85708,0.4149 -2.32452,0.51551 -3.232,0.22157 z"
         style="fill:#000000;stroke-width:0.14335635"
         inkscape:connector-curvature="0" />
      <path
         id="path861"
         d="m 127.10281,294.68846 c -0.11702,-0.11703 -0.17158,-0.79314 -0.17063,-2.11451 10e-4,-1.739 0.0369,-2.01862 0.3399,-2.66942 1.06548,-2.28817 4.27837,-2.76395 6.06664,-0.89838 0.78098,0.81475 0.90324,1.3054 0.90324,3.62497 v 2.08055 l -0.36889,0.0926 c -0.20289,0.0509 -0.42312,0.036 -0.4894,-0.0331 -0.0663,-0.0691 -0.1422,-0.99658 -0.16871,-2.06099 -0.0422,-1.69485 -0.0874,-1.99834 -0.36364,-2.44253 -0.86238,-1.38652 -3.06131,-1.59992 -4.14651,-0.40238 -0.5594,0.6173 -0.62717,0.92062 -0.62717,2.80681 0,1.87962 -0.0809,2.18844 -0.57343,2.18844 -0.12616,0 -0.30678,-0.0774 -0.4014,-0.17203 z"
         style="fill:#000000;stroke-width:0.14335635"
         inkscape:connector-curvature="0" />
      <path
         id="path859"
         d="m 138.43826,294.74427 c -0.12734,-0.0809 -0.18685,-0.90362 -0.21504,-2.97245 l -0.0389,-2.8606 -1.18073,-0.0416 c -0.96884,-0.0341 -1.20582,-0.0885 -1.3205,-0.30275 -0.0958,-0.17903 -0.0851,-0.33593 0.0342,-0.49899 0.15408,-0.21073 0.51716,-0.23343 3.18412,-0.199 l 3.0102,0.0389 v 0.43007 0.43007 l -1.25437,0.0414 -1.25437,0.0414 v 2.83287 c 0,2.89364 -0.0511,3.17982 -0.56626,3.17474 -0.12221,-0.001 -0.30143,-0.0526 -0.39827,-0.11405 z"
         style="fill:#000000;stroke-width:0.14335635"
         inkscape:connector-curvature="0" />
      <path
         id="path857"
         d="m 57.402958,282.46983 c -3.807621,-0.80973 -6.812307,-3.10525 -8.456607,-6.46068 -1.032484,-2.10694 -1.212632,-2.90558 -1.212632,-5.37587 0,-2.40913 0.175495,-3.22385 1.12712,-5.2325 1.165954,-2.46107 3.142247,-4.43736 5.603312,-5.60332 1.975473,-0.9359 2.826711,-1.12136 5.160828,-1.12441 2.379657,-0.003 3.54725,0.26947 5.521064,1.2889 2.848567,1.47123 4.826126,3.80428 5.888512,6.94706 0.39137,1.15774 0.469493,1.62426 0.527779,3.15153 0.07645,2.00319 -0.133863,3.37792 -0.753873,4.92769 -0.198042,0.49503 -0.359917,0.92725 -0.359721,0.96048 1.49e-4,0.0333 4.822347,0.0698 10.715891,0.0812 5.893538,0.0114 12.263773,0.0928 14.156077,0.18074 22.636322,1.05236 33.302502,1.07345 40.426492,0.08 3.97003,-0.55364 6.37936,-1.5608 6.37936,-2.66672 0,-0.63035 -0.3271,-1.15793 -1.5938,-2.57071 -2.90481,-3.23977 -7.94679,-7.11954 -13.38694,-10.30114 -10.47632,-6.12693 -24.52014,-10.97506 -35.910766,-12.3969 -4.756889,-0.59378 -11.788423,-0.66085 -16.916052,-0.16134 -3.934441,0.38327 -9.434963,1.23697 -12.337041,1.91476 l -1.026721,0.23979 2.417036,0.55049 c 3.057113,0.69627 5.883371,1.62121 7.721209,2.5269 2.505297,1.23461 2.527065,1.25855 5.547626,6.10091 2.88537,4.62562 3.590433,5.52919 4.535474,5.81232 1.068116,0.32002 1.860086,-0.23372 3.499685,-2.44694 1.906689,-2.57376 4.338964,-4.28396 6.845494,-4.81326 0.860578,-0.18174 1.397616,-0.15371 7.024462,0.3665 3.350954,0.3098 9.092374,0.79312 12.758724,1.07404 3.66633,0.28092 6.79509,0.53307 6.95278,0.56033 0.89039,0.15395 -4.23489,-0.0209 -22.334194,-0.76203 -3.719039,-0.15228 -4.155461,-0.0918 -5.893793,0.81676 -1.237698,0.64691 -2.979742,2.32704 -4.122696,3.97619 -1.867109,2.69403 -3.787947,3.57441 -5.768012,2.64367 -1.183665,-0.55639 -1.890346,-1.45332 -4.718453,-5.98875 -2.954134,-4.73753 -3.089481,-4.89403 -5.047676,-5.83607 -3.101611,-1.49212 -7.224381,-2.53094 -14.96324,-3.77029 l -2.49503,-0.39957 2.853423,-0.81006 c 4.727786,-1.34217 8.293817,-2.09623 13.32912,-2.81854 14.493976,-2.07913 26.208941,-0.94874 40.559171,3.91358 10.29461,3.48815 19.32025,8.16322 26.52092,13.73722 2.26677,1.75469 6.7865,6.24681 7.23475,7.19055 2.00155,4.21398 -2.98009,6.26531 -16.12284,6.63907 l -3.2972,0.0938 -0.76887,0.69913 c -4.05423,3.68644 -9.78966,4.29326 -14.45934,1.52983 -0.44694,-0.2645 -1.30806,-0.94961 -1.91359,-1.52246 l -1.10095,-1.04154 -6.289436,-0.2813 c -3.459184,-0.15471 -8.09572,-0.41082 -10.30341,-0.56914 -7.538954,-0.54062 -13.043594,-0.86792 -16.055906,-0.95468 l -3.010483,-0.0867 -0.313124,0.56592 c -1.268068,2.2918 -4.3264,4.52367 -7.213085,5.26386 -1.280386,0.32831 -3.979831,0.41294 -5.160828,0.16178 z"
         style="fill:#000000;stroke-width:0.14335635"
         inkscape:connector-curvature="0" />
      <path
         id="path855"
         d="m 62.133717,280.86576 c 3.503627,-0.78561 6.464968,-3.64853 7.618528,-7.36535 0.478609,-1.54209 0.478609,-4.19216 0,-5.73425 -1.138295,-3.66763 -3.835166,-6.33381 -7.409954,-7.32562 -1.426163,-0.39569 -3.680389,-0.4304 -5.128428,-0.079 -3.703179,0.89872 -6.662352,3.7679 -7.717443,7.48274 -0.455034,1.60209 -0.455034,3.97588 0,5.57797 0.798716,2.8122 2.575795,5.03883 5.187818,6.50021 2.170914,1.21459 4.771111,1.54384 7.449479,0.94328 z"
         style="fill:#ffffff;fill-opacity:1;stroke-width:0.14335635"
         inkscape:connector-curvature="0" />
      <path
         id="path847"
         d="m 90.379047,264.88945 c 0.609966,-0.86326 1.656043,-1.81877 2.408718,-2.20018 l 0.730046,-0.36994 15.728859,0.28833 c 8.65087,0.15858 15.74584,0.30531 15.76661,0.32608 0.0208,0.0208 -4.94204,0.21867 -11.02846,0.43979 -13.90024,0.505 -15.961673,0.6052 -18.090684,0.87931 -1.642505,0.21148 -5.176865,0.86554 -5.642363,1.04417 -0.151492,0.0581 -0.111668,-0.0694 0.127274,-0.40756 z"
         style="fill:#000000;stroke-width:0.14335635"
         inkscape:connector-curvature="0" />
    </g>
  </g>
</svg>
